<svg width="24px" height="24px" viewBox="0 0 78 77" fill="#000" xmlns="http://www.w3.org/2000/svg">
<path fill-rule="evenodd" clip-rule="evenodd" d="M2.9375 65.216C0.253906 67.8997 0.253906 72.2509 2.9375 74.9346C5.62109 77.6183 9.97217 77.6183 12.6558 74.9346L38.936 48.6546L65.2656 74.9842C67.9497 77.6679 72.3008 77.6679 74.9844 74.9842C77.668 72.3005 77.668 67.9494 74.9844 65.2657L48.6548 38.9359L75.0625 12.5283C77.7461 9.84457 77.7461 5.49338 75.0625 2.80966C72.3784 0.125946 68.0273 0.125946 65.3438 2.80966L38.936 29.2173L12.5781 2.85934C9.89453 0.175629 5.54297 0.175629 2.85938 2.85934C0.175781 5.54306 0.175781 9.8942 2.85938 12.5779L29.2173 38.936L2.9375 65.216Z" fill="#00D673"/>
</svg>
